<?xml version="1.0" encoding="iso-8859-1"?>
<svg xmlns="http://www.w3.org/2000/svg" xmlns:xlink="http://www.w3.org/1999/xlink" version="1.1" viewBox="0 0 463 463" enable-background="new 0 0 463 463" width="512px" height="512px">
  <g>
    <path d="m392.382,354.469l-77.969-17.993c-11.456-7.354-11.434-16.573-11.411-24.02l.002-.887c0-0.06-0.008-0.118-0.009-0.178 24.436-24.875 40.005-62.213 40.005-103.891 0-21.498-5.039-43.101-13.27-57.382 7.38-11.176 21.27-36.716 21.27-70.618 0-27.424-6.651-57.115-16.944-75.643-1.541-2.772-4.657-4.275-7.789-3.756-0.474,0.08-48.021,7.899-102.767,7.899-53.247,0-71.375,21.893-76.975,32.265-11.336,1.204-21.997,6.479-29.819,14.882-8.933,9.596-13.519,22.592-12.583,35.658 1.446,20.177 5.781,48.913 9.973,76.702 2.175,14.417 4.229,28.039 5.91,40.543 0.136,41.458 15.672,78.579 40.003,103.345-0.001,0.059-0.009,0.115-0.009,0.174l.002,.887c0.022,7.446 0.045,16.664-11.409,24.018l-77.975,17.995c-18.027,4.16-30.618,19.986-30.618,38.487v46.613c0,12.92 11.526,23.431 25.693,23.431h331.613c14.168,0 25.694-10.511 25.694-23.43v-46.613c0-18.502-12.591-34.328-30.618-38.488zm-233.382-131.469h49v0.5c0,4.687-3.813,8.5-8.5,8.5h-32c-4.687,0-8.5-3.813-8.5-8.5v-0.5zm49-15h-49v-9h49v9zm-64,15.5c0,12.958 10.542,23.5 23.5,23.5h32c12.958,0 23.5-10.542 23.5-23.5v-24.5h17v24.5c0,12.958 10.542,23.5 23.5,23.5h32c12.958,0 23.5-10.542 23.5-23.5v-8.5h8.808c-3.112,62.963-45.115,113-96.308,113s-93.195-50.037-96.308-113h8.808v8.5zm111-.5h49v0.5c0,4.687-3.813,8.5-8.5,8.5h-32c-4.687,0-8.5-3.813-8.5-8.5v-0.5zm49-15h-49v-9h49v9zm-129.785,115.707c16.753,12.242 36.353,19.293 57.285,19.293 20.933,0 40.535-7.052 57.288-19.296 1.191,6.566 4.178,14.172 11.592,20.878l-50.751,55.827c-4.702,5.171-11.14,8.02-18.129,8.02s-13.427-2.849-18.129-8.02l-50.75-55.825c7.415-6.706 10.403-14.311 11.594-20.877zm-46.53-258.34c6.223-6.685 14.685-10.367 23.825-10.367 3.388,0 6.355-2.271 7.24-5.542 0.072-0.263 8.724-26.458 64.75-26.458 45.092,0 85.511-5.205 99.776-7.271 7.703,16.491 12.724,41.291 12.724,63.771 0,32.381-14.754,56.575-20.253,64.466-78.367-0.704-129.767-14.947-153.718-23.527-3.9-1.398-8.193,0.633-9.59,4.531-1.397,3.899 0.632,8.193 4.531,9.59 25.043,8.972 78.89,23.918 160.535,24.426 5.549,10.328 9.319,25.476 10.258,41.014h-8.763v-8.5c0-4.143-3.358-7.5-7.5-7.5h-64-32-64c-4.142,0-7.5,3.357-7.5,7.5v8.5h-8.578c1.8-16.723 9.118-33.321 15.393-44.938 1.969-3.645 0.61-8.194-3.034-10.163-3.644-1.969-8.194-0.61-10.163,3.034-2.827,5.233-5.838,11.411-8.562,18.173-0.042-0.278-0.084-0.559-0.126-0.836-4.149-27.504-8.44-55.945-9.844-75.537-0.65-9.058 2.404-17.711 8.599-24.366zm280.315,374.203c0,4.57-4.897,8.431-10.693,8.431h-30.307v-16.5c0-4.143-3.358-7.5-7.5-7.5s-7.5,3.357-7.5,7.5v16.499h-241v-16.5c0-4.143-3.358-7.5-7.5-7.5s-7.5,3.357-7.5,7.5v16.5h-30.307c-5.796,0-10.693-3.86-10.693-8.43v-46.613c0-11.475 7.81-21.291 18.991-23.872l74.915-17.288 53.367,58.703c7.47,8.217 18.123,12.93 29.228,12.93s21.758-4.713 29.228-12.93l53.367-58.703 74.915,17.288c11.18,2.58 18.989,12.397 18.989,23.871v46.614z" fill="#FFFFFF"/>
    <path d="m203.133,285.721c8.363,5.99 18.172,9.156 28.367,9.156s20.004-3.166 28.367-9.156c3.368-2.412 4.142-7.098 1.73-10.465-2.412-3.368-7.097-4.142-10.464-1.73-5.801,4.155-12.59,6.352-19.633,6.352s-13.832-2.196-19.633-6.352c-3.366-2.41-8.052-1.637-10.464,1.73-2.412,3.367-1.638,8.053 1.73,10.465z" fill="#FFFFFF"/>
    <path d="m137.374,104.214c0.371,3.882 3.636,6.789 7.458,6.789 0.238,0 0.479-0.012 0.721-0.035 4.123-0.393 7.147-4.055 6.754-8.178-0.542-5.68-0.98-10.842-1.303-15.343-0.007-0.095 0.001-0.136 0-0.136 0.004-0.011 0.034-0.065 0.104-0.141 0.153-0.164 0.21-0.171 0.403-0.171 4.142,0 7.5-3.357 7.5-7.5s-3.358-7.5-7.5-7.5c-4.368,0-8.41,1.758-11.382,4.95-2.943,3.161-4.395,7.27-4.087,11.569 0.331,4.62 0.779,9.901 1.332,15.696z" fill="#FFFFFF"/>
    <path d="m298.462,126.215c1.073,0.533 2.211,0.786 3.333,0.786 2.757,0 5.411-1.527 6.722-4.164 3.805-7.653 8.639-19.872 10.063-34.617 0.398-4.123-2.622-7.788-6.745-8.186-4.128-0.416-7.788,2.621-8.186,6.744-1.204,12.468-5.321,22.859-8.563,29.382-1.846,3.71-0.333,8.211 3.376,10.055z" fill="#FFFFFF"/>
    <path d="m302.052,56.714c0.603,3.677 3.784,6.287 7.392,6.287 0.403,0 0.812-0.032 1.223-0.1 4.087-0.671 6.857-4.527 6.188-8.615-0.767-4.675-1.718-9.241-2.828-13.573-1.028-4.013-5.112-6.431-9.126-5.405-4.013,1.027-6.432,5.114-5.405,9.126 1.001,3.907 1.861,8.039 2.556,12.28z" fill="#FFFFFF"/>
  </g>
</svg>
